<svg width="92" height="40" viewBox="0 0 92 40" fill="none" xmlns="http://www.w3.org/2000/svg">
<path d="M1.97647 11H0.570224L3.13059 3.72727H4.75701L7.32093 11H5.91468L3.97221 5.21875H3.91539L1.97647 11ZM2.02264 8.14844H5.85787V9.20668H2.02264V8.14844ZM12.4106 5.54545L10.4681 11H9.04767L7.1052 5.54545H8.47594L9.72949 9.5973H9.78631L11.0434 5.54545H12.4106ZM14.7135 11.1101C14.3679 11.1101 14.0566 11.0485 13.7796 10.9254C13.5049 10.8 13.2871 10.6153 13.1262 10.3714C12.9675 10.1276 12.8882 9.82694 12.8882 9.46946C12.8882 9.1617 12.945 8.9072 13.0587 8.70597C13.1723 8.50473 13.3274 8.34375 13.5239 8.22301C13.7204 8.10227 13.9417 8.01113 14.1879 7.94957C14.4365 7.88565 14.6934 7.83949 14.9585 7.81108C15.2781 7.77794 15.5374 7.74834 15.7362 7.7223C15.9351 7.69389 16.0795 7.65128 16.1695 7.59446C16.2618 7.53527 16.308 7.44413 16.308 7.32102V7.29972C16.308 7.0322 16.2287 6.82505 16.07 6.67827C15.9114 6.53149 15.683 6.4581 15.3847 6.4581C15.0698 6.4581 14.82 6.52675 14.6354 6.66406C14.4531 6.80137 14.33 6.96354 14.2661 7.15057L13.0658 6.98011C13.1605 6.64867 13.3167 6.37169 13.5345 6.14915C13.7523 5.92424 14.0187 5.75616 14.3335 5.64489C14.6484 5.53125 14.9964 5.47443 15.3776 5.47443C15.6404 5.47443 15.902 5.50521 16.1624 5.56676C16.4228 5.62831 16.6607 5.73011 16.8762 5.87216C17.0916 6.01184 17.2644 6.20241 17.3946 6.44389C17.5272 6.68537 17.5935 6.98722 17.5935 7.34943V11H16.3577V10.2507H16.3151C16.2369 10.4022 16.1269 10.5443 15.9848 10.6768C15.8451 10.8071 15.6688 10.9124 15.4557 10.9929C15.245 11.071 14.9976 11.1101 14.7135 11.1101ZM15.0473 10.1655C15.3054 10.1655 15.5291 10.1146 15.7185 10.0128C15.9079 9.90862 16.0535 9.77131 16.1553 9.60085C16.2594 9.4304 16.3115 9.24455 16.3115 9.04332V8.40057C16.2713 8.43371 16.2026 8.46449 16.1056 8.4929C16.0109 8.52131 15.9043 8.54616 15.786 8.56747C15.6676 8.58878 15.5504 8.60772 15.4344 8.62429C15.3184 8.64086 15.2178 8.65507 15.1325 8.6669C14.9408 8.69294 14.7691 8.73556 14.6176 8.79474C14.4661 8.85393 14.3466 8.93679 14.259 9.04332C14.1714 9.14749 14.1276 9.28243 14.1276 9.44815C14.1276 9.6849 14.214 9.86364 14.3868 9.98438C14.5596 10.1051 14.7798 10.1655 15.0473 10.1655ZM18.8861 11V5.54545H20.1716V11H18.8861ZM19.5324 4.77131C19.3288 4.77131 19.1536 4.70384 19.0068 4.56889C18.8601 4.43158 18.7867 4.26705 18.7867 4.07528C18.7867 3.88116 18.8601 3.71662 19.0068 3.58168C19.1536 3.44437 19.3288 3.37571 19.5324 3.37571C19.7384 3.37571 19.9136 3.44437 20.058 3.58168C20.2048 3.71662 20.2781 3.88116 20.2781 4.07528C20.2781 4.26705 20.2048 4.43158 20.058 4.56889C19.9136 4.70384 19.7384 4.77131 19.5324 4.77131ZM22.779 3.72727V11H21.4935V3.72727H22.779ZM25.6705 11.1101C25.3249 11.1101 25.0136 11.0485 24.7366 10.9254C24.462 10.8 24.2442 10.6153 24.0832 10.3714C23.9246 10.1276 23.8453 9.82694 23.8453 9.46946C23.8453 9.1617 23.9021 8.9072 24.0157 8.70597C24.1294 8.50473 24.2844 8.34375 24.4809 8.22301C24.6774 8.10227 24.8988 8.01113 25.145 7.94957C25.3936 7.88565 25.6504 7.83949 25.9156 7.81108C26.2352 7.77794 26.4944 7.74834 26.6933 7.7223C26.8921 7.69389 27.0365 7.65128 27.1265 7.59446C27.2188 7.53527 27.265 7.44413 27.265 7.32102V7.29972C27.265 7.0322 27.1857 6.82505 27.0271 6.67827C26.8685 6.53149 26.64 6.4581 26.3417 6.4581C26.0268 6.4581 25.7771 6.52675 25.5924 6.66406C25.4101 6.80137 25.287 6.96354 25.2231 7.15057L24.0228 6.98011C24.1175 6.64867 24.2738 6.37169 24.4916 6.14915C24.7094 5.92424 24.9757 5.75616 25.2906 5.64489C25.6054 5.53125 25.9535 5.47443 26.3346 5.47443C26.5974 5.47443 26.859 5.50521 27.1194 5.56676C27.3798 5.62831 27.6177 5.73011 27.8332 5.87216C28.0486 6.01184 28.2214 6.20241 28.3517 6.44389C28.4842 6.68537 28.5505 6.98722 28.5505 7.34943V11H27.3147V10.2507H27.2721C27.194 10.4022 27.0839 10.5443 26.9419 10.6768C26.8022 10.8071 26.6258 10.9124 26.4127 10.9929C26.202 11.071 25.9546 11.1101 25.6705 11.1101ZM26.0044 10.1655C26.2624 10.1655 26.4861 10.1146 26.6755 10.0128C26.8649 9.90862 27.0105 9.77131 27.1123 9.60085C27.2165 9.4304 27.2686 9.24455 27.2686 9.04332V8.40057C27.2283 8.43371 27.1597 8.46449 27.0626 8.4929C26.9679 8.52131 26.8614 8.54616 26.743 8.56747C26.6246 8.58878 26.5074 8.60772 26.3914 8.62429C26.2754 8.64086 26.1748 8.65507 26.0896 8.6669C25.8978 8.69294 25.7262 8.73556 25.5747 8.79474C25.4231 8.85393 25.3036 8.93679 25.216 9.04332C25.1284 9.14749 25.0846 9.28243 25.0846 9.44815C25.0846 9.6849 25.171 9.86364 25.3438 9.98438C25.5167 10.1051 25.7368 10.1655 26.0044 10.1655ZM29.8999 11V3.72727H31.1855V6.44744H31.2387C31.305 6.31487 31.3985 6.17401 31.5193 6.02486C31.64 5.87334 31.8034 5.74432 32.0093 5.63778C32.2153 5.52888 32.4781 5.47443 32.7977 5.47443C33.2191 5.47443 33.599 5.58215 33.9376 5.79759C34.2785 6.01065 34.5484 6.3267 34.7472 6.74574C34.9485 7.16241 35.0491 7.67377 35.0491 8.27983C35.0491 8.87879 34.9508 9.38778 34.7544 9.80682C34.5579 10.2259 34.2903 10.5455 33.9518 10.7656C33.6133 10.9858 33.2297 11.0959 32.8012 11.0959C32.4887 11.0959 32.2295 11.0438 32.0235 10.9396C31.8176 10.8355 31.6518 10.71 31.5264 10.5632C31.4033 10.4141 31.3074 10.2732 31.2387 10.1406H31.1642V11H29.8999ZM31.1606 8.27273C31.1606 8.62547 31.2103 8.93442 31.3097 9.19957C31.4115 9.46473 31.5571 9.67187 31.7465 9.82102C31.9383 9.9678 32.1703 10.0412 32.4426 10.0412C32.7267 10.0412 32.9646 9.96544 33.1563 9.81392C33.3481 9.66004 33.4925 9.45052 33.5896 9.18537C33.689 8.91785 33.7387 8.61364 33.7387 8.27273C33.7387 7.93419 33.6902 7.63352 33.5931 7.37074C33.4961 7.10795 33.3517 6.90199 33.1599 6.75284C32.9681 6.60369 32.729 6.52912 32.4426 6.52912C32.1679 6.52912 31.9347 6.60133 31.743 6.74574C31.5512 6.89015 31.4056 7.09257 31.3062 7.35298C31.2091 7.6134 31.1606 7.91998 31.1606 8.27273ZM37.4275 3.72727V11H36.142V3.72727H37.4275ZM41.1642 11.1065C40.6173 11.1065 40.145 10.9929 39.7472 10.7656C39.3519 10.536 39.0477 10.2116 38.8346 9.79261C38.6215 9.37121 38.515 8.87524 38.515 8.30469C38.515 7.74361 38.6215 7.25118 38.8346 6.82741C39.05 6.40128 39.3507 6.06984 39.7366 5.8331C40.1225 5.59399 40.5758 5.47443 41.0967 5.47443C41.4329 5.47443 41.7501 5.52888 42.0484 5.63778C42.349 5.74432 42.6142 5.91004 42.8438 6.13494C43.0758 6.35985 43.2581 6.64631 43.3907 6.99432C43.5233 7.33996 43.5896 7.75189 43.5896 8.23011V8.62429H39.1187V7.75781H42.3573C42.355 7.5116 42.3017 7.29261 42.1975 7.10085C42.0934 6.90672 41.9478 6.75402 41.7607 6.64276C41.5761 6.53149 41.3606 6.47585 41.1144 6.47585C40.8517 6.47585 40.6208 6.53977 40.422 6.66761C40.2231 6.79309 40.068 6.95881 39.9568 7.16477C39.8479 7.36837 39.7922 7.59209 39.7899 7.83594V8.59233C39.7899 8.90956 39.8479 9.18182 39.9639 9.40909C40.0799 9.634 40.242 9.80682 40.4504 9.92756C40.6587 10.0459 40.9026 10.1051 41.1819 10.1051C41.3689 10.1051 41.5382 10.0791 41.6897 10.027C41.8412 9.97254 41.9726 9.89323 42.0839 9.78906C42.1952 9.6849 42.2792 9.55587 42.336 9.40199L43.5363 9.53693C43.4606 9.85417 43.3161 10.1312 43.1031 10.3679C42.8924 10.6023 42.6225 10.7846 42.2934 10.9148C41.9643 11.0426 41.5879 11.1065 41.1642 11.1065ZM49.5368 11.1065C49.0042 11.1065 48.5425 10.9893 48.1519 10.755C47.7613 10.5206 47.4582 10.1927 47.2428 9.77131C47.0297 9.34991 46.9232 8.85748 46.9232 8.29403C46.9232 7.73059 47.0297 7.23698 47.2428 6.81321C47.4582 6.38944 47.7613 6.06037 48.1519 5.82599C48.5425 5.59162 49.0042 5.47443 49.5368 5.47443C50.0695 5.47443 50.5312 5.59162 50.9218 5.82599C51.3124 6.06037 51.6143 6.38944 51.8273 6.81321C52.0428 7.23698 52.1505 7.73059 52.1505 8.29403C52.1505 8.85748 52.0428 9.34991 51.8273 9.77131C51.6143 10.1927 51.3124 10.5206 50.9218 10.755C50.5312 10.9893 50.0695 11.1065 49.5368 11.1065ZM49.5439 10.0767C49.8328 10.0767 50.0742 9.9974 50.2684 9.83878C50.4625 9.67779 50.6069 9.46236 50.7016 9.19247C50.7987 8.92259 50.8472 8.62192 50.8472 8.29048C50.8472 7.95668 50.7987 7.65483 50.7016 7.38494C50.6069 7.11269 50.4625 6.89607 50.2684 6.73509C50.0742 6.5741 49.8328 6.49361 49.5439 6.49361C49.248 6.49361 49.0018 6.5741 48.8053 6.73509C48.6112 6.89607 48.4656 7.11269 48.3685 7.38494C48.2738 7.65483 48.2265 7.95668 48.2265 8.29048C48.2265 8.62192 48.2738 8.92259 48.3685 9.19247C48.4656 9.46236 48.6112 9.67779 48.8053 9.83878C49.0018 9.9974 49.248 10.0767 49.5439 10.0767ZM54.5271 7.80398V11H53.2416V5.54545H54.4703V6.4723H54.5342C54.6597 6.1669 54.8597 5.92424 55.1343 5.74432C55.4113 5.56439 55.7534 5.47443 56.1606 5.47443C56.537 5.47443 56.8649 5.55492 57.1443 5.71591C57.426 5.87689 57.6438 6.11009 57.7977 6.41548C57.9539 6.72088 58.0309 7.09138 58.0285 7.52699V11H56.743V7.72585C56.743 7.36127 56.6483 7.07599 56.4589 6.87003C56.2719 6.66406 56.0126 6.56108 55.6812 6.56108C55.4563 6.56108 55.2562 6.6108 55.0811 6.71023C54.9082 6.80729 54.7721 6.94815 54.6727 7.13281C54.5756 7.31747 54.5271 7.54119 54.5271 7.80398Z" fill="#403F3D"/>
<path d="M8.94318 26.0795C8.84849 25.7727 8.7178 25.4981 8.55114 25.2557C8.38826 25.0095 8.19129 24.7992 7.96023 24.625C7.73295 24.4508 7.47159 24.3201 7.17614 24.233C6.88068 24.142 6.55871 24.0966 6.21023 24.0966C5.58523 24.0966 5.02841 24.2538 4.53977 24.5682C4.05114 24.8826 3.66667 25.3447 3.38636 25.9545C3.10985 26.5606 2.97159 27.2992 2.97159 28.1705C2.97159 29.0492 3.10985 29.7936 3.38636 30.4034C3.66288 31.0133 4.04735 31.4773 4.53977 31.7955C5.0322 32.1098 5.60417 32.267 6.25568 32.267C6.84659 32.267 7.35795 32.1534 7.78977 31.9261C8.22538 31.6989 8.56061 31.3769 8.79545 30.9602C9.0303 30.5398 9.14773 30.0473 9.14773 29.483L9.625 29.5568H6.46591V27.9091H11.1875V29.3068C11.1875 30.303 10.9754 31.1648 10.5511 31.892C10.1269 32.6193 9.54356 33.1799 8.80114 33.5739C8.05871 33.964 7.20644 34.1591 6.24432 34.1591C5.17235 34.1591 4.23106 33.9186 3.42045 33.4375C2.61364 32.9527 1.98295 32.2652 1.52841 31.375C1.07765 30.4811 0.852273 29.4205 0.852273 28.1932C0.852273 27.2538 0.984848 26.4148 1.25 25.6761C1.51894 24.9375 1.89394 24.3106 2.375 23.7955C2.85606 23.2765 3.42045 22.8826 4.06818 22.6136C4.71591 22.3409 5.42045 22.2045 6.18182 22.2045C6.82576 22.2045 7.42614 22.2992 7.98295 22.4886C8.53977 22.6742 9.03409 22.9394 9.46591 23.2841C9.90152 23.6288 10.2595 24.0379 10.5398 24.5114C10.8201 24.9848 11.0038 25.5076 11.0909 26.0795H8.94318ZM16.9418 34.1705C16.0895 34.1705 15.3509 33.983 14.7259 33.608C14.1009 33.233 13.616 32.7083 13.2713 32.0341C12.9304 31.3598 12.7599 30.572 12.7599 29.6705C12.7599 28.7689 12.9304 27.9792 13.2713 27.3011C13.616 26.6231 14.1009 26.0966 14.7259 25.7216C15.3509 25.3466 16.0895 25.1591 16.9418 25.1591C17.794 25.1591 18.5327 25.3466 19.1577 25.7216C19.7827 26.0966 20.2656 26.6231 20.6065 27.3011C20.9512 27.9792 21.1236 28.7689 21.1236 29.6705C21.1236 30.572 20.9512 31.3598 20.6065 32.0341C20.2656 32.7083 19.7827 33.233 19.1577 33.608C18.5327 33.983 17.794 34.1705 16.9418 34.1705ZM16.9531 32.5227C17.4152 32.5227 17.8016 32.3958 18.1122 32.142C18.4228 31.8845 18.6539 31.5398 18.8054 31.108C18.9607 30.6761 19.0384 30.1951 19.0384 29.6648C19.0384 29.1307 18.9607 28.6477 18.8054 28.2159C18.6539 27.7803 18.4228 27.4337 18.1122 27.1761C17.8016 26.9186 17.4152 26.7898 16.9531 26.7898C16.4796 26.7898 16.0857 26.9186 15.7713 27.1761C15.4607 27.4337 15.2277 27.7803 15.0724 28.2159C14.9209 28.6477 14.8452 29.1307 14.8452 29.6648C14.8452 30.1951 14.9209 30.6761 15.0724 31.108C15.2277 31.5398 15.4607 31.8845 15.7713 32.142C16.0857 32.3958 16.4796 32.5227 16.9531 32.5227ZM26.6761 34.1705C25.8239 34.1705 25.0852 33.983 24.4602 33.608C23.8352 33.233 23.3504 32.7083 23.0057 32.0341C22.6648 31.3598 22.4943 30.572 22.4943 29.6705C22.4943 28.7689 22.6648 27.9792 23.0057 27.3011C23.3504 26.6231 23.8352 26.0966 24.4602 25.7216C25.0852 25.3466 25.8239 25.1591 26.6761 25.1591C27.5284 25.1591 28.267 25.3466 28.892 25.7216C29.517 26.0966 30 26.6231 30.3409 27.3011C30.6856 27.9792 30.858 28.7689 30.858 29.6705C30.858 30.572 30.6856 31.3598 30.3409 32.0341C30 32.7083 29.517 33.233 28.892 33.608C28.267 33.983 27.5284 34.1705 26.6761 34.1705ZM26.6875 32.5227C27.1496 32.5227 27.536 32.3958 27.8466 32.142C28.1572 31.8845 28.3883 31.5398 28.5398 31.108C28.6951 30.6761 28.7727 30.1951 28.7727 29.6648C28.7727 29.1307 28.6951 28.6477 28.5398 28.2159C28.3883 27.7803 28.1572 27.4337 27.8466 27.1761C27.536 26.9186 27.1496 26.7898 26.6875 26.7898C26.214 26.7898 25.8201 26.9186 25.5057 27.1761C25.1951 27.4337 24.9621 27.7803 24.8068 28.2159C24.6553 28.6477 24.5795 29.1307 24.5795 29.6648C24.5795 30.1951 24.6553 30.6761 24.8068 31.108C24.9621 31.5398 25.1951 31.8845 25.5057 32.142C25.8201 32.3958 26.214 32.5227 26.6875 32.5227ZM36.3991 37.4545C35.6605 37.4545 35.026 37.3542 34.4957 37.1534C33.9654 36.9564 33.5393 36.6913 33.2173 36.358C32.8954 36.0246 32.6719 35.6553 32.5469 35.25L34.3991 34.8011C34.4825 34.9716 34.6037 35.1402 34.7628 35.3068C34.9219 35.4773 35.1359 35.6174 35.4048 35.7273C35.6776 35.8409 36.0204 35.8977 36.4332 35.8977C37.0166 35.8977 37.4995 35.7557 37.8821 35.4716C38.2647 35.1913 38.456 34.7292 38.456 34.0852V32.4318H38.3537C38.2476 32.6439 38.0923 32.8617 37.8878 33.0852C37.687 33.3087 37.42 33.4962 37.0866 33.6477C36.7571 33.7992 36.3423 33.875 35.8423 33.875C35.1719 33.875 34.5639 33.7178 34.0185 33.4034C33.4768 33.0852 33.045 32.6117 32.723 31.983C32.4048 31.3504 32.2457 30.5587 32.2457 29.608C32.2457 28.6496 32.4048 27.8409 32.723 27.1818C33.045 26.5189 33.4787 26.017 34.0241 25.6761C34.5696 25.3314 35.1776 25.1591 35.848 25.1591C36.3594 25.1591 36.7798 25.2462 37.1094 25.4205C37.4427 25.5909 37.7079 25.7973 37.9048 26.0398C38.1018 26.2784 38.2514 26.5038 38.3537 26.7159H38.4673V25.2727H40.4957V34.142C40.4957 34.8883 40.3177 35.5057 39.9616 35.9943C39.6056 36.483 39.1188 36.8485 38.5014 37.0909C37.884 37.3333 37.1832 37.4545 36.3991 37.4545ZM36.4162 32.2614C36.8518 32.2614 37.223 32.1553 37.5298 31.9432C37.8366 31.7311 38.0696 31.4261 38.2287 31.0284C38.3878 30.6307 38.4673 30.1534 38.4673 29.5966C38.4673 29.0473 38.3878 28.5663 38.2287 28.1534C38.0734 27.7405 37.8423 27.4205 37.5355 27.1932C37.2325 26.9621 36.8594 26.8466 36.4162 26.8466C35.9579 26.8466 35.5753 26.9659 35.2685 27.2045C34.9616 27.4432 34.7306 27.7708 34.5753 28.1875C34.42 28.6004 34.3423 29.0701 34.3423 29.5966C34.3423 30.1307 34.42 30.5985 34.5753 31C34.7344 31.3977 34.9673 31.7083 35.2741 31.9318C35.5848 32.1515 35.9654 32.2614 36.4162 32.2614ZM44.6605 22.3636V34H42.6037V22.3636H44.6605ZM50.6392 34.1705C49.7642 34.1705 49.0085 33.9886 48.3722 33.625C47.7396 33.2576 47.2528 32.7386 46.9119 32.0682C46.571 31.3939 46.4006 30.6004 46.4006 29.6875C46.4006 28.7898 46.571 28.0019 46.9119 27.3239C47.2566 26.642 47.7377 26.1117 48.3551 25.733C48.9725 25.3504 49.6979 25.1591 50.5312 25.1591C51.0691 25.1591 51.5767 25.2462 52.054 25.4205C52.535 25.5909 52.9593 25.8561 53.3267 26.2159C53.6979 26.5758 53.9896 27.0341 54.2017 27.5909C54.4138 28.1439 54.5199 28.803 54.5199 29.5682V30.1989H47.3665V28.8125H52.5483C52.5445 28.4186 52.4593 28.0682 52.2926 27.7614C52.1259 27.4508 51.893 27.2064 51.5938 27.0284C51.2983 26.8504 50.9536 26.7614 50.5597 26.7614C50.1392 26.7614 49.7699 26.8636 49.4517 27.0682C49.1335 27.2689 48.8854 27.5341 48.7074 27.8636C48.5331 28.1894 48.4441 28.5473 48.4403 28.9375V30.1477C48.4403 30.6553 48.5331 31.0909 48.7188 31.4545C48.9044 31.8144 49.1638 32.0909 49.4972 32.2841C49.8305 32.4735 50.2206 32.5682 50.6676 32.5682C50.9669 32.5682 51.2377 32.5265 51.4801 32.4432C51.7225 32.3561 51.9328 32.2292 52.1108 32.0625C52.2888 31.8958 52.4233 31.6894 52.5142 31.4432L54.4347 31.6591C54.3134 32.1667 54.0824 32.6098 53.7415 32.9886C53.4044 33.3636 52.9725 33.6553 52.446 33.8636C51.9195 34.0682 51.3172 34.1705 50.6392 34.1705ZM60.3196 34V22.3636H64.6832C65.5772 22.3636 66.3272 22.5303 66.9332 22.8636C67.5431 23.197 68.0033 23.6553 68.3139 24.2386C68.6283 24.8182 68.7855 25.4773 68.7855 26.2159C68.7855 26.9621 68.6283 27.625 68.3139 28.2045C67.9995 28.7841 67.5355 29.2405 66.9219 29.5739C66.3082 29.9034 65.5526 30.0682 64.6548 30.0682H61.7628V28.3352H64.3707C64.8935 28.3352 65.3215 28.2443 65.6548 28.0625C65.9882 27.8807 66.2344 27.6307 66.3935 27.3125C66.5563 26.9943 66.6378 26.6288 66.6378 26.2159C66.6378 25.803 66.5563 25.4394 66.3935 25.125C66.2344 24.8106 65.9863 24.5663 65.6491 24.392C65.3158 24.214 64.8859 24.125 64.3594 24.125H62.4276V34H60.3196ZM72.5824 22.3636V34H70.5256V22.3636H72.5824ZM77.2088 34.1761C76.6558 34.1761 76.1577 34.0777 75.7145 33.8807C75.2751 33.6799 74.9266 33.3845 74.669 32.9943C74.4152 32.6042 74.2884 32.1231 74.2884 31.5511C74.2884 31.0587 74.3793 30.6515 74.5611 30.3295C74.7429 30.0076 74.991 29.75 75.3054 29.5568C75.6198 29.3636 75.974 29.2178 76.3679 29.1193C76.7656 29.017 77.1766 28.9432 77.6009 28.8977C78.1122 28.8447 78.527 28.7973 78.8452 28.7557C79.1634 28.7102 79.3944 28.642 79.5384 28.5511C79.6861 28.4564 79.7599 28.3106 79.7599 28.1136V28.0795C79.7599 27.6515 79.633 27.3201 79.3793 27.0852C79.1255 26.8504 78.7599 26.733 78.2827 26.733C77.7789 26.733 77.3793 26.8428 77.0838 27.0625C76.7921 27.2822 76.5952 27.5417 76.4929 27.8409L74.5724 27.5682C74.724 27.0379 74.974 26.5947 75.3224 26.2386C75.6709 25.8788 76.0971 25.6098 76.6009 25.4318C77.1046 25.25 77.6615 25.1591 78.2713 25.1591C78.6918 25.1591 79.1103 25.2083 79.527 25.3068C79.9437 25.4053 80.3243 25.5682 80.669 25.7955C81.0137 26.0189 81.2902 26.3239 81.4986 26.7102C81.7107 27.0966 81.8168 27.5795 81.8168 28.1591V34H79.8395V32.8011H79.7713C79.6463 33.0436 79.4702 33.2708 79.2429 33.483C79.0194 33.6913 78.7372 33.8598 78.3963 33.9886C78.0592 34.1136 77.6634 34.1761 77.2088 34.1761ZM77.7429 32.6648C78.1558 32.6648 78.5137 32.5833 78.8168 32.4205C79.1198 32.2538 79.3527 32.0341 79.5156 31.7614C79.6823 31.4886 79.7656 31.1913 79.7656 30.8693V29.8409C79.7012 29.8939 79.5914 29.9432 79.4361 29.9886C79.2846 30.0341 79.1141 30.0739 78.9247 30.108C78.7353 30.142 78.5478 30.1723 78.3622 30.1989C78.1766 30.2254 78.0156 30.2481 77.8793 30.267C77.5724 30.3087 77.2978 30.3769 77.0554 30.4716C76.813 30.5663 76.6217 30.6989 76.4815 30.8693C76.3414 31.036 76.2713 31.2519 76.2713 31.517C76.2713 31.8958 76.4096 32.1818 76.6861 32.375C76.9626 32.5682 77.3149 32.6648 77.7429 32.6648ZM84.8509 37.2727C84.5705 37.2727 84.3111 37.25 84.0724 37.2045C83.8376 37.1629 83.6501 37.1136 83.5099 37.0568L83.9872 35.4545C84.2865 35.5417 84.5535 35.5833 84.7884 35.5795C85.0232 35.5758 85.2296 35.5019 85.4077 35.358C85.5895 35.2178 85.7429 34.983 85.8679 34.6534L86.044 34.1818L82.8793 25.2727H85.0611L87.0724 31.8636H87.1634L89.1804 25.2727H91.3679L87.8736 35.0568C87.7107 35.5189 87.4948 35.9148 87.2259 36.2443C86.9569 36.5777 86.6274 36.8314 86.2372 37.0057C85.8509 37.1837 85.3887 37.2727 84.8509 37.2727Z" fill="#403F3D"/>
</svg>
