<svg width="78" height="40" viewBox="0 0 78 40" fill="none" xmlns="http://www.w3.org/2000/svg">
<path d="M1.74796 11H0.341708L2.90208 3.72727H4.5285L7.09242 11H5.68617L3.7437 5.21875H3.68688L1.74796 11ZM1.79412 8.14844H5.62935V9.20668H1.79412V8.14844ZM12.1821 5.54545L10.2396 11H8.81916L6.87669 5.54545H8.24743L9.50098 9.5973H9.55779L10.8149 5.54545H12.1821ZM14.485 11.1101C14.1394 11.1101 13.828 11.0485 13.551 10.9254C13.2764 10.8 13.0586 10.6153 12.8976 10.3714C12.739 10.1276 12.6597 9.82694 12.6597 9.46946C12.6597 9.1617 12.7165 8.9072 12.8302 8.70597C12.9438 8.50473 13.0989 8.34375 13.2954 8.22301C13.4919 8.10227 13.7132 8.01113 13.9594 7.94957C14.208 7.88565 14.4649 7.83949 14.73 7.81108C15.0496 7.77794 15.3089 7.74834 15.5077 7.7223C15.7066 7.69389 15.851 7.65128 15.941 7.59446C16.0333 7.53527 16.0795 7.44413 16.0795 7.32102V7.29972C16.0795 7.0322 16.0001 6.82505 15.8415 6.67827C15.6829 6.53149 15.4545 6.4581 15.1562 6.4581C14.8413 6.4581 14.5915 6.52675 14.4069 6.66406C14.2246 6.80137 14.1015 6.96354 14.0376 7.15057L12.8373 6.98011C12.932 6.64867 13.0882 6.37169 13.306 6.14915C13.5238 5.92424 13.7902 5.75616 14.105 5.64489C14.4199 5.53125 14.7679 5.47443 15.1491 5.47443C15.4118 5.47443 15.6734 5.50521 15.9339 5.56676C16.1943 5.62831 16.4322 5.73011 16.6476 5.87216C16.8631 6.01184 17.0359 6.20241 17.1661 6.44389C17.2987 6.68537 17.365 6.98722 17.365 7.34943V11H16.1292V10.2507H16.0866C16.0084 10.4022 15.8983 10.5443 15.7563 10.6768C15.6166 10.8071 15.4403 10.9124 15.2272 10.9929C15.0165 11.071 14.7691 11.1101 14.485 11.1101ZM14.8188 10.1655C15.0769 10.1655 15.3006 10.1146 15.49 10.0128C15.6794 9.90862 15.825 9.77131 15.9268 9.60085C16.0309 9.4304 16.083 9.24455 16.083 9.04332V8.40057C16.0428 8.43371 15.9741 8.46449 15.877 8.4929C15.7823 8.52131 15.6758 8.54616 15.5574 8.56747C15.4391 8.58878 15.3219 8.60772 15.2059 8.62429C15.0899 8.64086 14.9893 8.65507 14.904 8.6669C14.7123 8.69294 14.5406 8.73556 14.3891 8.79474C14.2376 8.85393 14.118 8.93679 14.0305 9.04332C13.9429 9.14749 13.8991 9.28243 13.8991 9.44815C13.8991 9.6849 13.9855 9.86364 14.1583 9.98438C14.3311 10.1051 14.5513 10.1655 14.8188 10.1655ZM18.6576 11V5.54545H19.9431V11H18.6576ZM19.3039 4.77131C19.1003 4.77131 18.9251 4.70384 18.7783 4.56889C18.6315 4.43158 18.5581 4.26705 18.5581 4.07528C18.5581 3.88116 18.6315 3.71662 18.7783 3.58168C18.9251 3.44437 19.1003 3.37571 19.3039 3.37571C19.5099 3.37571 19.685 3.44437 19.8295 3.58168C19.9762 3.71662 20.0496 3.88116 20.0496 4.07528C20.0496 4.26705 19.9762 4.43158 19.8295 4.56889C19.685 4.70384 19.5099 4.77131 19.3039 4.77131ZM22.5505 3.72727V11H21.265V3.72727H22.5505ZM25.442 11.1101C25.0964 11.1101 24.7851 11.0485 24.5081 10.9254C24.2335 10.8 24.0157 10.6153 23.8547 10.3714C23.6961 10.1276 23.6167 9.82694 23.6167 9.46946C23.6167 9.1617 23.6736 8.9072 23.7872 8.70597C23.9008 8.50473 24.0559 8.34375 24.2524 8.22301C24.4489 8.10227 24.6702 8.01113 24.9165 7.94957C25.165 7.88565 25.4219 7.83949 25.6871 7.81108C26.0067 7.77794 26.2659 7.74834 26.4648 7.7223C26.6636 7.69389 26.808 7.65128 26.898 7.59446C26.9903 7.53527 27.0365 7.44413 27.0365 7.32102V7.29972C27.0365 7.0322 26.9572 6.82505 26.7986 6.67827C26.6399 6.53149 26.4115 6.4581 26.1132 6.4581C25.7983 6.4581 25.5486 6.52675 25.3639 6.66406C25.1816 6.80137 25.0585 6.96354 24.9946 7.15057L23.7943 6.98011C23.889 6.64867 24.0452 6.37169 24.2631 6.14915C24.4809 5.92424 24.7472 5.75616 25.0621 5.64489C25.3769 5.53125 25.7249 5.47443 26.1061 5.47443C26.3689 5.47443 26.6305 5.50521 26.8909 5.56676C27.1513 5.62831 27.3892 5.73011 27.6047 5.87216C27.8201 6.01184 27.9929 6.20241 28.1231 6.44389C28.2557 6.68537 28.322 6.98722 28.322 7.34943V11H27.0862V10.2507H27.0436C26.9655 10.4022 26.8554 10.5443 26.7133 10.6768C26.5737 10.8071 26.3973 10.9124 26.1842 10.9929C25.9735 11.071 25.7261 11.1101 25.442 11.1101ZM25.7758 10.1655C26.0339 10.1655 26.2576 10.1146 26.447 10.0128C26.6364 9.90862 26.782 9.77131 26.8838 9.60085C26.988 9.4304 27.04 9.24455 27.04 9.04332V8.40057C26.9998 8.43371 26.9311 8.46449 26.8341 8.4929C26.7394 8.52131 26.6328 8.54616 26.5145 8.56747C26.3961 8.58878 26.2789 8.60772 26.1629 8.62429C26.0469 8.64086 25.9463 8.65507 25.8611 8.6669C25.6693 8.69294 25.4977 8.73556 25.3461 8.79474C25.1946 8.85393 25.0751 8.93679 24.9875 9.04332C24.8999 9.14749 24.8561 9.28243 24.8561 9.44815C24.8561 9.6849 24.9425 9.86364 25.1153 9.98438C25.2881 10.1051 25.5083 10.1655 25.7758 10.1655ZM29.6714 11V3.72727H30.9569V6.44744H31.0102C31.0765 6.31487 31.17 6.17401 31.2907 6.02486C31.4115 5.87334 31.5748 5.74432 31.7808 5.63778C31.9868 5.52888 32.2496 5.47443 32.5692 5.47443C32.9906 5.47443 33.3705 5.58215 33.7091 5.79759C34.05 6.01065 34.3199 6.3267 34.5187 6.74574C34.72 7.16241 34.8206 7.67377 34.8206 8.27983C34.8206 8.87879 34.7223 9.38778 34.5258 9.80682C34.3293 10.2259 34.0618 10.5455 33.7233 10.7656C33.3847 10.9858 33.0012 11.0959 32.5727 11.0959C32.2602 11.0959 32.001 11.0438 31.795 10.9396C31.589 10.8355 31.4233 10.71 31.2979 10.5632C31.1747 10.4141 31.0789 10.2732 31.0102 10.1406H30.9356V11H29.6714ZM30.9321 8.27273C30.9321 8.62547 30.9818 8.93442 31.0812 9.19957C31.183 9.46473 31.3286 9.67187 31.518 9.82102C31.7098 9.9678 31.9418 10.0412 32.214 10.0412C32.4981 10.0412 32.7361 9.96544 32.9278 9.81392C33.1196 9.66004 33.264 9.45052 33.3611 9.18537C33.4605 8.91785 33.5102 8.61364 33.5102 8.27273C33.5102 7.93419 33.4617 7.63352 33.3646 7.37074C33.2675 7.10795 33.1231 6.90199 32.9314 6.75284C32.7396 6.60369 32.5005 6.52912 32.214 6.52912C31.9394 6.52912 31.7062 6.60133 31.5145 6.74574C31.3227 6.89015 31.1771 7.09257 31.0777 7.35298C30.9806 7.6134 30.9321 7.91998 30.9321 8.27273ZM37.199 3.72727V11H35.9134V3.72727H37.199ZM40.9356 11.1065C40.3888 11.1065 39.9165 10.9929 39.5187 10.7656C39.1234 10.536 38.8192 10.2116 38.6061 9.79261C38.393 9.37121 38.2865 8.87524 38.2865 8.30469C38.2865 7.74361 38.393 7.25118 38.6061 6.82741C38.8215 6.40128 39.1222 6.06984 39.5081 5.8331C39.894 5.59399 40.3473 5.47443 40.8682 5.47443C41.2043 5.47443 41.5216 5.52888 41.8199 5.63778C42.1205 5.74432 42.3857 5.91004 42.6153 6.13494C42.8473 6.35985 43.0296 6.64631 43.1622 6.99432C43.2948 7.33996 43.3611 7.75189 43.3611 8.23011V8.62429H38.8902V7.75781H42.1288C42.1265 7.5116 42.0732 7.29261 41.969 7.10085C41.8648 6.90672 41.7193 6.75402 41.5322 6.64276C41.3476 6.53149 41.1321 6.47585 40.8859 6.47585C40.6231 6.47585 40.3923 6.53977 40.1934 6.66761C39.9946 6.79309 39.8395 6.95881 39.7282 7.16477C39.6193 7.36837 39.5637 7.59209 39.5613 7.83594V8.59233C39.5613 8.90956 39.6193 9.18182 39.7354 9.40909C39.8514 9.634 40.0135 9.80682 40.2219 9.92756C40.4302 10.0459 40.674 10.1051 40.9534 10.1051C41.1404 10.1051 41.3097 10.0791 41.4612 10.027C41.6127 9.97254 41.7441 9.89323 41.8554 9.78906C41.9666 9.6849 42.0507 9.55587 42.1075 9.40199L43.3078 9.53693C43.232 9.85417 43.0876 10.1312 42.8746 10.3679C42.6639 10.6023 42.394 10.7846 42.0649 10.9148C41.7358 11.0426 41.3594 11.1065 40.9356 11.1065ZM49.3083 11.1065C48.7757 11.1065 48.314 10.9893 47.9234 10.755C47.5328 10.5206 47.2297 10.1927 47.0143 9.77131C46.8012 9.34991 46.6947 8.85748 46.6947 8.29403C46.6947 7.73059 46.8012 7.23698 47.0143 6.81321C47.2297 6.38944 47.5328 6.06037 47.9234 5.82599C48.314 5.59162 48.7757 5.47443 49.3083 5.47443C49.841 5.47443 50.3026 5.59162 50.6933 5.82599C51.0839 6.06037 51.3857 6.38944 51.5988 6.81321C51.8142 7.23698 51.922 7.73059 51.922 8.29403C51.922 8.85748 51.8142 9.34991 51.5988 9.77131C51.3857 10.1927 51.0839 10.5206 50.6933 10.755C50.3026 10.9893 49.841 11.1065 49.3083 11.1065ZM49.3154 10.0767C49.6043 10.0767 49.8457 9.9974 50.0399 9.83878C50.234 9.67779 50.3784 9.46236 50.4731 9.19247C50.5702 8.92259 50.6187 8.62192 50.6187 8.29048C50.6187 7.95668 50.5702 7.65483 50.4731 7.38494C50.3784 7.11269 50.234 6.89607 50.0399 6.73509C49.8457 6.5741 49.6043 6.49361 49.3154 6.49361C49.0195 6.49361 48.7733 6.5741 48.5768 6.73509C48.3827 6.89607 48.2371 7.11269 48.14 7.38494C48.0453 7.65483 47.998 7.95668 47.998 8.29048C47.998 8.62192 48.0453 8.92259 48.14 9.19247C48.2371 9.46236 48.3827 9.67779 48.5768 9.83878C48.7733 9.9974 49.0195 10.0767 49.3154 10.0767ZM54.2986 7.80398V11H53.0131V5.54545H54.2417V6.4723H54.3057C54.4311 6.1669 54.6312 5.92424 54.9058 5.74432C55.1828 5.56439 55.5249 5.47443 55.9321 5.47443C56.3085 5.47443 56.6364 5.55492 56.9157 5.71591C57.1975 5.87689 57.4153 6.11009 57.5692 6.41548C57.7254 6.72088 57.8023 7.09138 57.8 7.52699V11H56.5145V7.72585C56.5145 7.36127 56.4198 7.07599 56.2304 6.87003C56.0434 6.66406 55.7841 6.56108 55.4527 6.56108C55.2278 6.56108 55.0277 6.6108 54.8525 6.71023C54.6797 6.80729 54.5436 6.94815 54.4442 7.13281C54.3471 7.31747 54.2986 7.54119 54.2986 7.80398ZM64.311 5.54545V6.53977H61.1753V5.54545H64.311ZM61.9495 4.23864H63.235V9.35938C63.235 9.5322 63.261 9.66477 63.3131 9.7571C63.3676 9.84706 63.4386 9.90862 63.5262 9.94176C63.6138 9.97491 63.7108 9.99148 63.8174 9.99148C63.8979 9.99148 63.9713 9.98556 64.0376 9.97372C64.1062 9.96188 64.1583 9.95123 64.1938 9.94176L64.4104 10.9467C64.3418 10.9704 64.2435 10.9964 64.1157 11.0249C63.9902 11.0533 63.8363 11.0698 63.654 11.0746C63.3321 11.084 63.0421 11.0355 62.784 10.929C62.526 10.8201 62.3212 10.652 62.1697 10.4247C62.0205 10.1974 61.9471 9.91335 61.9495 9.57244V4.23864ZM66.7888 7.80398V11H65.5033V3.72727H66.7604V6.4723H66.8243C66.9521 6.16454 67.1498 5.92187 67.4173 5.74432C67.6872 5.56439 68.0305 5.47443 68.4472 5.47443C68.826 5.47443 69.1562 5.55374 69.4379 5.71236C69.7197 5.87098 69.9375 6.10298 70.0914 6.40838C70.2476 6.71378 70.3257 7.08665 70.3257 7.52699V11H69.0402V7.72585C69.0402 7.3589 68.9455 7.07363 68.7561 6.87003C68.5691 6.66406 68.3063 6.56108 67.9678 6.56108C67.7405 6.56108 67.5369 6.6108 67.357 6.71023C67.1794 6.80729 67.0397 6.94815 66.9379 7.13281C66.8385 7.31747 66.7888 7.54119 66.7888 7.80398ZM74.0509 11.1065C73.504 11.1065 73.0317 10.9929 72.634 10.7656C72.2386 10.536 71.9344 10.2116 71.7213 9.79261C71.5083 9.37121 71.4017 8.87524 71.4017 8.30469C71.4017 7.74361 71.5083 7.25118 71.7213 6.82741C71.9368 6.40128 72.2374 6.06984 72.6233 5.8331C73.0092 5.59399 73.4626 5.47443 73.9834 5.47443C74.3196 5.47443 74.6368 5.52888 74.9351 5.63778C75.2358 5.74432 75.5009 5.91004 75.7306 6.13494C75.9626 6.35985 76.1449 6.64631 76.2774 6.99432C76.41 7.33996 76.4763 7.75189 76.4763 8.23011V8.62429H72.0054V7.75781H75.2441C75.2417 7.5116 75.1884 7.29261 75.0843 7.10085C74.9801 6.90672 74.8345 6.75402 74.6475 6.64276C74.4628 6.53149 74.2474 6.47585 74.0012 6.47585C73.7384 6.47585 73.5075 6.53977 73.3087 6.66761C73.1098 6.79309 72.9548 6.95881 72.8435 7.16477C72.7346 7.36837 72.6789 7.59209 72.6766 7.83594V8.59233C72.6766 8.90956 72.7346 9.18182 72.8506 9.40909C72.9666 9.634 73.1288 9.80682 73.3371 9.92756C73.5454 10.0459 73.7893 10.1051 74.0686 10.1051C74.2557 10.1051 74.4249 10.0791 74.5764 10.027C74.728 9.97254 74.8593 9.89323 74.9706 9.78906C75.0819 9.6849 75.1659 9.55587 75.2227 9.40199L76.423 9.53693C76.3473 9.85417 76.2029 10.1312 75.9898 10.3679C75.7791 10.6023 75.5092 10.7846 75.1801 10.9148C74.8511 11.0426 74.4746 11.1065 74.0509 11.1065Z" fill="#403F3D"/>
<path d="M2.64205 34H0.392045L4.48864 22.3636H7.09091L11.1932 34H8.94318L5.83523 24.75H5.74432L2.64205 34ZM2.71591 29.4375H8.85227V31.1307H2.71591V29.4375ZM12.6349 37.2727V25.2727H14.6577V26.7159H14.777C14.883 26.5038 15.0327 26.2784 15.2259 26.0398C15.419 25.7973 15.6804 25.5909 16.0099 25.4205C16.3395 25.2462 16.7599 25.1591 17.2713 25.1591C17.9455 25.1591 18.5535 25.3314 19.0952 25.6761C19.6406 26.017 20.0724 26.5227 20.3906 27.1932C20.7126 27.8598 20.8736 28.678 20.8736 29.6477C20.8736 30.6061 20.7164 31.4205 20.402 32.0909C20.0876 32.7614 19.6596 33.2727 19.1179 33.625C18.5762 33.9773 17.9626 34.1534 17.277 34.1534C16.777 34.1534 16.3622 34.0701 16.0327 33.9034C15.7031 33.7367 15.438 33.536 15.2372 33.3011C15.0402 33.0625 14.8868 32.8371 14.777 32.625H14.6918V37.2727H12.6349ZM14.652 29.6364C14.652 30.2008 14.7315 30.6951 14.8906 31.1193C15.0535 31.5436 15.2865 31.875 15.5895 32.1136C15.8963 32.3485 16.2675 32.4659 16.7031 32.4659C17.1577 32.4659 17.5384 32.3447 17.8452 32.1023C18.152 31.8561 18.383 31.5208 18.5384 31.0966C18.6974 30.6686 18.777 30.1818 18.777 29.6364C18.777 29.0947 18.6993 28.6136 18.544 28.1932C18.3887 27.7727 18.1577 27.4432 17.8509 27.2045C17.544 26.9659 17.1615 26.8466 16.7031 26.8466C16.2637 26.8466 15.8906 26.9621 15.5838 27.1932C15.277 27.4242 15.044 27.7481 14.8849 28.1648C14.7296 28.5814 14.652 29.072 14.652 29.6364ZM22.6349 37.2727V25.2727H24.6577V26.7159H24.777C24.883 26.5038 25.0327 26.2784 25.2259 26.0398C25.419 25.7973 25.6804 25.5909 26.0099 25.4205C26.3395 25.2462 26.7599 25.1591 27.2713 25.1591C27.9455 25.1591 28.5535 25.3314 29.0952 25.6761C29.6406 26.017 30.0724 26.5227 30.3906 27.1932C30.7126 27.8598 30.8736 28.678 30.8736 29.6477C30.8736 30.6061 30.7164 31.4205 30.402 32.0909C30.0876 32.7614 29.6596 33.2727 29.1179 33.625C28.5762 33.9773 27.9626 34.1534 27.277 34.1534C26.777 34.1534 26.3622 34.0701 26.0327 33.9034C25.7031 33.7367 25.438 33.536 25.2372 33.3011C25.0402 33.0625 24.8868 32.8371 24.777 32.625H24.6918V37.2727H22.6349ZM24.652 29.6364C24.652 30.2008 24.7315 30.6951 24.8906 31.1193C25.0535 31.5436 25.2865 31.875 25.5895 32.1136C25.8963 32.3485 26.2675 32.4659 26.7031 32.4659C27.1577 32.4659 27.5384 32.3447 27.8452 32.1023C28.152 31.8561 28.383 31.5208 28.5384 31.0966C28.6974 30.6686 28.777 30.1818 28.777 29.6364C28.777 29.0947 28.6993 28.6136 28.544 28.1932C28.3887 27.7727 28.1577 27.4432 27.8509 27.2045C27.544 26.9659 27.1615 26.8466 26.7031 26.8466C26.2637 26.8466 25.8906 26.9621 25.5838 27.1932C25.277 27.4242 25.044 27.7481 24.8849 28.1648C24.7296 28.5814 24.652 29.072 24.652 29.6364ZM43.0185 25.5625C42.9654 25.0663 42.742 24.6799 42.348 24.4034C41.9579 24.1269 41.4503 23.9886 40.8253 23.9886C40.3859 23.9886 40.009 24.0549 39.6946 24.1875C39.3802 24.3201 39.1397 24.5 38.973 24.7273C38.8063 24.9545 38.7211 25.214 38.7173 25.5057C38.7173 25.7481 38.7723 25.9583 38.8821 26.1364C38.9957 26.3144 39.1491 26.4659 39.3423 26.5909C39.5355 26.7121 39.7495 26.8144 39.9844 26.8977C40.2192 26.9811 40.456 27.0511 40.6946 27.108L41.7855 27.3807C42.2249 27.483 42.6473 27.6212 43.0526 27.7955C43.4616 27.9697 43.8272 28.1894 44.1491 28.4545C44.4749 28.7197 44.7325 29.0398 44.9219 29.4148C45.1113 29.7898 45.206 30.2292 45.206 30.733C45.206 31.4148 45.0317 32.0152 44.6832 32.5341C44.3348 33.0492 43.831 33.4527 43.1719 33.7443C42.5166 34.0322 41.723 34.1761 40.7912 34.1761C39.8859 34.1761 39.0999 34.036 38.4332 33.7557C37.7704 33.4754 37.2514 33.0663 36.8764 32.5284C36.5052 31.9905 36.3045 31.3352 36.2741 30.5625H38.348C38.3783 30.9678 38.5033 31.3049 38.723 31.5739C38.9427 31.8428 39.2287 32.0436 39.581 32.1761C39.937 32.3087 40.3348 32.375 40.7741 32.375C41.2325 32.375 41.634 32.3068 41.9787 32.1705C42.3272 32.0303 42.5999 31.8371 42.7969 31.5909C42.9938 31.3409 43.0942 31.0492 43.098 30.7159C43.0942 30.4129 43.0052 30.1629 42.831 29.9659C42.6567 29.7652 42.4124 29.5985 42.098 29.4659C41.7874 29.3295 41.4238 29.2083 41.0071 29.1023L39.6832 28.7614C38.7249 28.5152 37.9673 28.142 37.4105 27.642C36.8575 27.1383 36.581 26.4697 36.581 25.6364C36.581 24.9508 36.7666 24.3504 37.1378 23.8352C37.5128 23.3201 38.0223 22.9205 38.6662 22.6364C39.3101 22.3485 40.0393 22.2045 40.8537 22.2045C41.6795 22.2045 42.4029 22.3485 43.0241 22.6364C43.6491 22.9205 44.1397 23.3163 44.4957 23.8239C44.8518 24.3277 45.0355 24.9072 45.0469 25.5625H43.0185ZM51.3523 25.2727V26.8636H46.3352V25.2727H51.3523ZM47.5739 23.1818H49.6307V31.375C49.6307 31.6515 49.6723 31.8636 49.7557 32.0114C49.8428 32.1553 49.9564 32.2538 50.0966 32.3068C50.2367 32.3598 50.392 32.3864 50.5625 32.3864C50.6913 32.3864 50.8087 32.3769 50.9148 32.358C51.0246 32.339 51.108 32.322 51.1648 32.3068L51.5114 33.9148C51.4015 33.9527 51.2443 33.9943 51.0398 34.0398C50.839 34.0852 50.5928 34.1117 50.3011 34.1193C49.786 34.1345 49.322 34.0568 48.9091 33.8864C48.4962 33.7121 48.1686 33.4432 47.9261 33.0795C47.6875 32.7159 47.5701 32.2614 47.5739 31.7159V23.1818ZM56.7855 34.1705C55.9332 34.1705 55.1946 33.983 54.5696 33.608C53.9446 33.233 53.4598 32.7083 53.1151 32.0341C52.7741 31.3598 52.6037 30.572 52.6037 29.6705C52.6037 28.7689 52.7741 27.9792 53.1151 27.3011C53.4598 26.6231 53.9446 26.0966 54.5696 25.7216C55.1946 25.3466 55.9332 25.1591 56.7855 25.1591C57.6378 25.1591 58.3764 25.3466 59.0014 25.7216C59.6264 26.0966 60.1094 26.6231 60.4503 27.3011C60.795 27.9792 60.9673 28.7689 60.9673 29.6705C60.9673 30.572 60.795 31.3598 60.4503 32.0341C60.1094 32.7083 59.6264 33.233 59.0014 33.608C58.3764 33.983 57.6378 34.1705 56.7855 34.1705ZM56.7969 32.5227C57.259 32.5227 57.6454 32.3958 57.956 32.142C58.2666 31.8845 58.4976 31.5398 58.6491 31.108C58.8045 30.6761 58.8821 30.1951 58.8821 29.6648C58.8821 29.1307 58.8045 28.6477 58.6491 28.2159C58.4976 27.7803 58.2666 27.4337 57.956 27.1761C57.6454 26.9186 57.259 26.7898 56.7969 26.7898C56.3234 26.7898 55.9295 26.9186 55.6151 27.1761C55.3045 27.4337 55.0715 27.7803 54.9162 28.2159C54.7647 28.6477 54.6889 29.1307 54.6889 29.6648C54.6889 30.1951 54.7647 30.6761 54.9162 31.108C55.0715 31.5398 55.3045 31.8845 55.6151 32.142C55.9295 32.3958 56.3234 32.5227 56.7969 32.5227ZM62.7131 34V25.2727H64.7074V26.7273H64.7983C64.9574 26.2235 65.2301 25.8352 65.6165 25.5625C66.0066 25.286 66.4517 25.1477 66.9517 25.1477C67.0653 25.1477 67.1922 25.1534 67.3324 25.1648C67.4763 25.1723 67.5956 25.1856 67.6903 25.2045V27.0966C67.6032 27.0663 67.465 27.0398 67.2756 27.017C67.09 26.9905 66.91 26.9773 66.7358 26.9773C66.3608 26.9773 66.0237 27.0587 65.7244 27.2216C65.429 27.3807 65.196 27.6023 65.0256 27.8864C64.8551 28.1705 64.7699 28.4981 64.7699 28.8693V34H62.7131ZM72.5611 34.1705C71.6861 34.1705 70.9304 33.9886 70.294 33.625C69.6615 33.2576 69.1747 32.7386 68.8338 32.0682C68.4929 31.3939 68.3224 30.6004 68.3224 29.6875C68.3224 28.7898 68.4929 28.0019 68.8338 27.3239C69.1785 26.642 69.6596 26.1117 70.277 25.733C70.8944 25.3504 71.6198 25.1591 72.4531 25.1591C72.991 25.1591 73.4986 25.2462 73.9759 25.4205C74.4569 25.5909 74.8812 25.8561 75.2486 26.2159C75.6198 26.5758 75.9115 27.0341 76.1236 27.5909C76.3357 28.1439 76.4418 28.803 76.4418 29.5682V30.1989H69.2884V28.8125H74.4702C74.4664 28.4186 74.3812 28.0682 74.2145 27.7614C74.0478 27.4508 73.8149 27.2064 73.5156 27.0284C73.2202 26.8504 72.8755 26.7614 72.4815 26.7614C72.0611 26.7614 71.6918 26.8636 71.3736 27.0682C71.0554 27.2689 70.8073 27.5341 70.6293 27.8636C70.455 28.1894 70.366 28.5473 70.3622 28.9375V30.1477C70.3622 30.6553 70.455 31.0909 70.6406 31.4545C70.8262 31.8144 71.0857 32.0909 71.419 32.2841C71.7524 32.4735 72.1425 32.5682 72.5895 32.5682C72.8887 32.5682 73.1596 32.5265 73.402 32.4432C73.6444 32.3561 73.8546 32.2292 74.0327 32.0625C74.2107 31.8958 74.3452 31.6894 74.4361 31.4432L76.3565 31.6591C76.2353 32.1667 76.0043 32.6098 75.6634 32.9886C75.3262 33.3636 74.8944 33.6553 74.3679 33.8636C73.8414 34.0682 73.2391 34.1705 72.5611 34.1705Z" fill="#403F3D"/>
</svg>
