<svg width="19" height="19" viewBox="0 0 19 19" fill="none" xmlns="http://www.w3.org/2000/svg">
<path fill-rule="evenodd" clip-rule="evenodd" d="M1.5 9.08333C1.5 4.89517 4.89517 1.5 9.08333 1.5C13.2715 1.5 16.6667 4.89517 16.6667 9.08333C16.6667 13.2715 13.2715 16.6667 9.08333 16.6667C4.89517 16.6667 1.5 13.2715 1.5 9.08333ZM9.08333 0C4.06675 0 0 4.06675 0 9.08333C0 14.0999 4.06675 18.1667 9.08333 18.1667C14.0999 18.1667 18.1667 14.0999 18.1667 9.08333C18.1667 4.06675 14.0999 0 9.08333 0ZM9.83333 4.08333C9.83333 3.66912 9.49755 3.33333 9.08333 3.33333C8.66912 3.33333 8.33333 3.66912 8.33333 4.08333L8.33333 9.08333C8.33333 9.49755 8.66912 9.83333 9.08333 9.83333H14.0833C14.4975 9.83333 14.8333 9.49755 14.8333 9.08333C14.8333 8.66912 14.4975 8.33333 14.0833 8.33333H9.83333L9.83333 4.08333Z" fill="#E1D4C9"/>
</svg>
